<svg width="150" height="190" viewBox="0 0 150 190" fill="none" xmlns="http://www.w3.org/2000/svg">
<path d="M101.374 71.1434L86.3612 67.735C83.6001 67.2234 80.8859 66.4851 78.246 65.5277H77.1586C66.4142 82.6993 61.3341 69.0984 47.295 75.8015L45.9316 76.4669L44.1138 77.8302C42.6532 78.8044 41.5349 80.2122 40.9165 81.8553C35.106 83.0564 30.1233 81.7255 23.6799 75.8501C25.4003 65.3329 27.9485 63.3204 31.0322 62.7686L34.116 62.5251H34.2296C37.1348 62.2167 40.3809 61.4539 43.8217 56.033C47.5222 50.3362 43.6107 53.4037 48.9991 48.5509C57.1467 41.4095 52.375 21.4301 78.246 27.2405C80.3073 27.6625 80.145 28.1819 78.9926 28.3117C71.3644 29.1882 66.9498 28.3117 62.6001 38.0499C70.7152 32.0934 71.3969 39.3808 78.4408 35.096C92.4962 25.1468 106.032 36.5567 126.125 32.5965C127.894 32.3044 127.164 33.619 126.304 33.9599C117.897 37.2059 109.067 39.4295 93.8433 37.2059C87.4486 36.7515 85.5659 37.6766 83.3586 39.9326C97.5763 33.8625 113.514 47.8692 125.557 44.2661C121.455 46.2029 117.073 47.4792 112.573 48.0477C117.994 50.6446 123.561 53.8906 128.755 55.5136L143.897 16.0417C126.426 5.34575 106.294 -0.211681 85.8094 0.00616733C45.9641 0.00616733 6.28111 24.3515 6.28111 67.7999C6.28111 96.4788 28.1595 111.784 54.1604 116.491L61.4477 117.805C61.4477 117.805 92.8533 121.197 109.733 104.204C111.534 102.387 110.966 109.22 110.966 111.898V112.027C110.921 115.023 110.269 117.978 109.05 120.715C107.831 123.451 106.07 125.912 103.874 127.949C102.575 129.167 101.212 130.335 99.8161 131.455C98.826 132.234 97.8035 132.981 96.781 133.695C100.546 135.724 101.455 142.346 101.455 142.346C98.8422 139.473 92.0742 136.73 92.0742 136.73C90.1335 137.848 88.1343 138.861 86.0853 139.765C88.4224 141.388 89.8669 145.056 90.5648 147.409C90.7729 147.973 90.9304 148.554 91.0355 149.146C91.0355 149.325 91.0355 149.438 91.0355 149.438C89.7533 146.533 82.9204 143.855 80.0638 142.946C77.9052 143.352 75.1948 143.741 73.2958 144.05C78.5706 147.701 78.9439 156.157 78.9439 156.157C76.6555 150.461 65.9597 146.225 63.931 145.462H59.9708C61.2545 150.969 61.0698 156.717 59.4352 162.13C59.0781 156.287 49.8106 144.65 49.8106 144.65C47.1259 144.231 44.4698 143.646 41.8578 142.897C43.2519 146.722 44.1837 150.7 44.6332 154.745C44.6332 154.745 29.9448 140.755 14.7695 134.88L0 172.339C21.9592 183.077 46.0295 188.804 70.4718 189.105C110.09 189.105 150 167.486 150 123.746C149.968 92.5186 129.55 77.4569 101.374 71.1434Z" fill="#009B72"/>
</svg>